<svg width="29" height="28" viewBox="0 0 29 28" fill="none" xmlns="http://www.w3.org/2000/svg">
<path d="M27.2966 1.39026C26.6734 0.719071 25.6962 0.467671 24.7626 0.377684C23.7816 0.283137 22.6068 0.346018 21.3419 0.511924C18.8052 0.844658 15.7404 1.61486 12.7964 2.56251C9.85058 3.51076 6.97902 4.6517 4.82852 5.74479C3.75824 6.2888 2.82995 6.83926 2.15511 7.36798C1.81909 7.63124 1.51246 7.91483 1.28181 8.21666C1.06181 8.50455 0.830355 8.91415 0.833528 9.40792C0.841888 10.704 1.72455 11.62 2.66453 12.2348C3.62395 12.8624 4.87347 13.3354 6.11565 13.7058C7.37115 14.0802 8.69145 14.3703 9.82647 14.6055C9.90086 14.6208 10.0495 14.6516 10.2317 14.6892C10.9178 14.831 11.2608 14.9019 11.5833 14.8054C11.9058 14.7088 12.1538 14.461 12.6495 13.9651L17.5574 9.05735C18.078 8.53666 18.9223 8.53666 19.443 9.05735C19.9636 9.57806 19.9636 10.4223 19.443 10.943L14.8662 15.5198C14.3607 16.0252 14.108 16.2779 14.0124 16.6059C13.9167 16.9339 13.9939 17.282 14.1482 17.9784C14.746 20.678 15.2652 22.9088 15.7832 24.4096C16.0858 25.2862 16.4262 26.045 16.8572 26.6046C17.3071 27.1886 17.9191 27.6298 18.7246 27.6654C19.226 27.6875 19.643 27.4586 19.9288 27.246C20.2302 27.0223 20.5135 26.722 20.7763 26.3939C21.3043 25.7342 21.8591 24.8214 22.4111 23.7664C23.5204 21.6464 24.6951 18.8039 25.6891 15.8796C26.6826 12.9566 27.5104 9.90763 27.9092 7.37363C28.1082 6.1099 28.2066 4.93626 28.1519 3.95319C28.1 3.02091 27.9014 2.04158 27.2966 1.39026Z" fill="#FFF0FE"/>
</svg>
